<svg width="24.000000" height="24.000000" viewBox="0 0 24 24" fill="none" xmlns="http://www.w3.org/2000/svg" xmlns:xlink="http://www.w3.org/1999/xlink">
	<desc>
			Created with Pixso.
	</desc>
	<defs>
		<clipPath id="clip29_7443">
			<rect id="mdi:source-branch" width="24.000000" height="24.000000" fill="white" fill-opacity="0"/>
		</clipPath>
	</defs>
	<rect id="mdi:source-branch" width="24.000000" height="24.000000" fill="#FFFFFF" fill-opacity="0"/>
	<g clip-path="url(#clip29_7443)">
		<path id="Vector" d="M13 14C9.63989 14 8.54004 15.3496 8.17993 16.2402C9.25 16.7002 10 17.7598 10 19C10 19.7959 9.68384 20.5586 9.12134 21.1211C8.55884 21.6836 7.79565 22 7 22C6.20435 22 5.44141 21.6836 4.87866 21.1211C4.31616 20.5586 4 19.7959 4 19C4 17.6904 4.83008 16.5801 6 16.1699L6 7.83008C5.41406 7.62402 4.90674 7.24121 4.54834 6.73438C4.18994 6.22754 3.99829 5.62109 4 5C4 4.2041 4.31616 3.44141 4.87866 2.87891C5.44141 2.31641 6.20435 2 7 2C7.79565 2 8.55884 2.31641 9.12134 2.87891C9.68384 3.44141 10 4.2041 10 5C10 6.30957 9.16992 7.41992 8 7.83008L8 13.1201C8.88013 12.4697 10.1599 12 12 12C14.6699 12 15.5601 10.6602 15.8501 9.76953C15.303 9.54199 14.8354 9.15723 14.5063 8.66504C14.177 8.17188 14.001 7.59277 14 7C14 6.2041 14.3162 5.44141 14.8787 4.87891C15.4414 4.31641 16.2043 4 17 4C17.7957 4 18.5588 4.31641 19.1213 4.87891C19.6838 5.44141 20 6.2041 20 7C20 8.33984 19.1201 9.5 17.9099 9.86035C17.6499 11.29 16.6799 14 13 14ZM7 18C6.73486 18 6.48047 18.1055 6.29297 18.293C6.10547 18.4805 6 18.7344 6 19C6 19.2656 6.10547 19.5195 6.29297 19.707C6.48047 19.8945 6.73486 20 7 20C7.26514 20 7.51953 19.8945 7.70703 19.707C7.89478 19.5195 8 19.2656 8 19C8 18.7344 7.89478 18.4805 7.70703 18.293C7.51953 18.1055 7.26514 18 7 18ZM7 4C6.73486 4 6.48047 4.10547 6.29297 4.29297C6.10547 4.48047 6 4.73438 6 5C6 5.26562 6.10547 5.51953 6.29297 5.70703C6.48047 5.89453 6.73486 6 7 6C7.26514 6 7.51953 5.89453 7.70703 5.70703C7.89478 5.51953 8 5.26562 8 5C8 4.73438 7.89478 4.48047 7.70703 4.29297C7.51953 4.10547 7.26514 4 7 4ZM17 6C16.7349 6 16.4805 6.10547 16.293 6.29297C16.1055 6.48047 16 6.73438 16 7C16 7.26562 16.1055 7.51953 16.293 7.70703C16.4805 7.89453 16.7349 8 17 8C17.2651 8 17.5195 7.89453 17.707 7.70703C17.8948 7.51953 18 7.26562 18 7C18 6.73438 17.8948 6.48047 17.707 6.29297C17.5195 6.10547 17.2651 6 17 6Z" fill="#FFFFFF" fill-opacity="1.000000" fill-rule="nonzero"/>
	</g>
</svg>
