<svg width="20.000000" height="20.000000" viewBox="0 0 20 20" fill="none" xmlns="http://www.w3.org/2000/svg" xmlns:xlink="http://www.w3.org/1999/xlink">
	<desc>
			Created with Pixso.
	</desc>
	<defs>
		<clipPath id="clip22_3622">
			<rect id="mdi:delete-outline" width="20.000000" height="20.000000" fill="white" fill-opacity="0"/>
		</clipPath>
	</defs>
	<rect id="mdi:delete-outline" width="20.000000" height="20.000000" fill="#FFFFFF" fill-opacity="0"/>
	<g clip-path="url(#clip22_3622)">
		<path id="Vector" d="M5 15.8333C5 16.2754 5.17578 16.6992 5.48828 17.012C5.80078 17.3245 6.22461 17.5 6.66675 17.5L13.3335 17.5C13.7754 17.5 14.1995 17.3245 14.512 17.012C14.8245 16.6992 15 16.2754 15 15.8333L15 5.83325L5 5.83325L5 15.8333ZM6.66675 7.5L13.3335 7.5L13.3335 15.8333L6.66675 15.8333L6.66675 7.5ZM12.9167 3.33325L12.0835 2.5L7.91675 2.5L7.0835 3.33325L4.16675 3.33325L4.16675 5L15.8335 5L15.8335 3.33325L12.9167 3.33325Z" fill="#2A3440" fill-opacity="1.000000" fill-rule="nonzero"/>
	</g>
</svg>
