<svg width="28.000000" height="28.000000" viewBox="0 0 28 28" fill="none" xmlns="http://www.w3.org/2000/svg" xmlns:xlink="http://www.w3.org/1999/xlink">
	<desc>
			Created with Pixso.
	</desc>
	<defs>
		<clipPath id="clip15_12266">
			<rect id="mdi:dots-vertical" width="28.000000" height="28.000000" fill="white" fill-opacity="0"/>
		</clipPath>
	</defs>
	<rect id="mdi:dots-vertical" width="28.000000" height="28.000000" fill="#FFFFFF" fill-opacity="0"/>
	<g clip-path="url(#clip15_12266)">
		<path id="Vector" d="M14 18.6667C14.6188 18.6667 15.2123 18.9126 15.6499 19.3501C16.0874 19.7878 16.3333 20.3813 16.3333 21C16.3333 21.6189 16.0874 22.2124 15.6499 22.6499C15.2123 23.0876 14.6188 23.3335 14 23.3335C13.3811 23.3335 12.7876 23.0876 12.3501 22.6499C11.9125 22.2124 11.6666 21.6189 11.6666 21C11.6666 20.3813 11.9125 19.7878 12.3501 19.3501C12.7876 18.9126 13.3811 18.6667 14 18.6667ZM14 11.6667C14.6188 11.6667 15.2123 11.9126 15.6499 12.3501C16.0874 12.7878 16.3333 13.3813 16.3333 14C16.3333 14.6189 16.0874 15.2124 15.6499 15.6499C15.2123 16.0876 14.6188 16.3335 14 16.3335C13.3811 16.3335 12.7876 16.0876 12.3501 15.6499C11.9125 15.2124 11.6666 14.6189 11.6666 14C11.6666 13.3813 11.9125 12.7878 12.3501 12.3501C12.7876 11.9126 13.3811 11.6667 14 11.6667ZM14 4.66675C14.6188 4.66675 15.2123 4.9126 15.6499 5.3501C16.0874 5.78784 16.3333 6.38135 16.3333 7C16.3333 7.6189 16.0874 8.2124 15.6499 8.6499C15.2123 9.08765 14.6188 9.3335 14 9.3335C13.3811 9.3335 12.7876 9.08765 12.3501 8.6499C11.9125 8.2124 11.6666 7.6189 11.6666 7C11.6666 6.38135 11.9125 5.78784 12.3501 5.3501C12.7876 4.9126 13.3811 4.66675 14 4.66675Z" fill="#5B7E9A" fill-opacity="1.000000" fill-rule="nonzero"/>
	</g>
</svg>
