<svg width="24.000000" height="24.000000" viewBox="0 0 24 24" fill="none" xmlns="http://www.w3.org/2000/svg" xmlns:xlink="http://www.w3.org/1999/xlink">
	<desc>
			Created with Pixso.
	</desc>
	<defs>
		<clipPath id="clip67_5186">
			<rect id="mdi:account-group-outline" width="24.000000" height="24.000000" fill="white" fill-opacity="0"/>
		</clipPath>
	</defs>
	<rect id="mdi:account-group-outline" width="24.000000" height="24.000000" fill="#FFFFFF" fill-opacity="0"/>
	<g clip-path="url(#clip67_5186)">
		<path id="Vector" d="M12 5C11.0718 5 10.1814 5.36914 9.52515 6.02539C8.86865 6.68164 8.5 7.57129 8.5 8.5C8.5 9.42871 8.86865 10.3184 9.52515 10.9746C10.1814 11.6309 11.0718 12 12 12C12.9282 12 13.8186 11.6309 14.4749 10.9746C15.1313 10.3184 15.5 9.42871 15.5 8.5C15.5 7.57129 15.1313 6.68164 14.4749 6.02539C13.8186 5.36914 12.9282 5 12 5ZM12 7C12.3977 7 12.7793 7.1582 13.0605 7.43945C13.342 7.7207 13.5 8.10254 13.5 8.5C13.5 8.89746 13.342 9.2793 13.0605 9.56055C12.7793 9.8418 12.3977 10 12 10C11.6023 10 11.2207 9.8418 10.9395 9.56055C10.658 9.2793 10.5 8.89746 10.5 8.5C10.5 8.10254 10.658 7.7207 10.9395 7.43945C11.2207 7.1582 11.6023 7 12 7ZM5.5 8C4.83691 8 4.20117 8.26367 3.73218 8.73242C3.26343 9.20117 3 9.83691 3 10.5C3 11.4404 3.53003 12.25 4.29004 12.6797C4.6499 12.8799 5.06006 13 5.5 13C5.93994 13 6.3501 12.8799 6.70996 12.6797C7.08008 12.4697 7.38989 12.1699 7.62012 11.8096C6.8916 10.8604 6.49756 9.69629 6.5 8.5L6.5 8.21973C6.19995 8.08008 5.86011 8 5.5 8ZM18.5 8C18.1399 8 17.8 8.08008 17.5 8.21973L17.5 8.5C17.5 9.7002 17.1101 10.8604 16.3799 11.8096C16.5 12 16.6299 12.1504 16.78 12.2998C17.2412 12.7471 17.8577 12.998 18.5 13C18.9399 13 19.3501 12.8799 19.71 12.6797C20.47 12.25 21 11.4404 21 10.5C21 9.83691 20.7366 9.20117 20.2678 8.73242C19.7988 8.26367 19.1631 8 18.5 8ZM12 14C9.65991 14 5 15.1699 5 17.5L5 19L19 19L19 17.5C19 15.1699 14.3401 14 12 14ZM4.70996 14.5498C2.78003 14.7803 0 15.7598 0 17.5L0 19L3 19L3 17.0703C3 16.0596 3.68994 15.2197 4.70996 14.5498ZM19.29 14.5498C20.3101 15.2197 21 16.0596 21 17.0703L21 19L24 19L24 17.5C24 15.7598 21.22 14.7803 19.29 14.5498ZM12 16C13.53 16 15.24 16.5 16.23 17L7.77002 17C8.76001 16.5 10.47 16 12 16Z" fill="#FFFFFF" fill-opacity="1.000000" fill-rule="nonzero"/>
	</g>
</svg>
