<svg width="134.651611" height="26.079956" viewBox="0 0 134.652 26.08" fill="none" xmlns="http://www.w3.org/2000/svg" xmlns:xlink="http://www.w3.org/1999/xlink">
	<desc>
			Created with Pixso.
	</desc>
	<defs/>
	<path id="neocafe" d="M71.0278 5.66396C72.9265 5.66396 74.6758 6.15462 76.2758 7.13596C77.8971 8.09596 79.1451 9.37596 80.0198 10.976L75.7958 10.976C74.4731 9.69596 72.8838 9.05596 71.0278 9.05596C69.1505 9.05596 67.5505 9.72796 66.2278 11.072C64.9051 12.3946 64.2438 13.9946 64.2438 15.872C64.2438 17.7493 64.9051 19.3493 66.2278 20.672C67.5505 21.9946 69.1505 22.656 71.0278 22.656C72.1371 22.656 73.1718 22.4106 74.1318 21.92C75.0918 21.4293 75.8811 20.7573 76.4998 19.904L80.4038 19.904C79.6145 21.7386 78.3665 23.232 76.6598 24.384C74.9745 25.5146 73.0971 26.08 71.0278 26.08C68.2118 26.08 65.8118 25.088 63.8278 23.104C61.8438 21.0986 60.8518 18.688 60.8518 15.872C60.8518 13.056 61.8438 10.656 63.8278 8.67196C65.8118 6.66662 68.2118 5.66396 71.0278 5.66396ZM101.761 15.872L101.761 26.08L98.3691 26.08L98.3691 23.456C96.4491 25.2053 94.1771 26.08 91.5531 26.08C88.7371 26.08 86.3264 25.088 84.3211 23.104C82.3371 21.0986 81.3451 18.688 81.3451 15.872C81.3451 13.056 82.3371 10.656 84.3211 8.67196C86.3264 6.66662 88.7371 5.66396 91.5531 5.66396C94.3691 5.66396 96.7691 6.66662 98.7531 8.67196C100.758 10.656 101.761 13.056 101.761 15.872ZM91.5531 9.05596C89.6757 9.05596 88.0757 9.72796 86.7531 11.072C85.4304 12.3946 84.7691 13.9946 84.7691 15.872C84.7691 17.7493 85.4304 19.3493 86.7531 20.672C88.0757 21.9946 89.6757 22.656 91.5531 22.656C93.4304 22.656 95.0304 21.9946 96.3531 20.672C97.6971 19.3493 98.3691 17.7493 98.3691 15.872C98.3691 13.9733 97.7077 12.3626 96.3851 11.04C95.0624 9.71729 93.4517 9.05596 91.5531 9.05596ZM105.794 6.78396L105.794 6.81596C105.794 4.93862 106.455 3.33862 107.778 2.01596C109.122 0.671957 110.733 -4.3869e-05 112.61 -4.3869e-05L113.73 -4.3869e-05L113.73 3.39196L112.61 3.39196C111.671 3.39196 110.871 3.72262 110.21 4.38396C109.549 5.04529 109.218 5.84529 109.218 6.78396L113.73 6.78396L113.73 10.176L109.218 10.176L109.218 26.08L105.794 26.08L105.794 10.176L103.522 10.176L103.522 6.78396L105.794 6.78396ZM117.212 8.67196C119.217 6.66662 121.628 5.66396 124.444 5.66396C127.26 5.66396 129.66 6.66662 131.644 8.67196C133.649 10.656 134.652 13.056 134.652 15.872C134.652 16.4053 134.598 16.9706 134.492 17.568L117.852 17.568C118.236 19.0613 119.036 20.288 120.252 21.248C121.468 22.1866 122.865 22.656 124.444 22.656C126.428 22.656 128.081 21.9413 129.404 20.512L133.532 20.512C132.678 22.1973 131.43 23.552 129.788 24.576C128.166 25.5786 126.385 26.08 124.444 26.08C121.628 26.08 119.217 25.088 117.212 23.104C115.228 21.0986 114.236 18.688 114.236 15.872C114.236 13.056 115.228 10.656 117.212 8.67196ZM117.852 14.176L131.036 14.176C130.673 12.6826 129.873 11.456 128.636 10.496C127.42 9.53596 126.022 9.05596 124.444 9.05596C122.865 9.05596 121.457 9.53596 120.22 10.496C119.004 11.456 118.214 12.6826 117.852 14.176Z" fill="#35536B" fill-opacity="1.000000" fill-rule="evenodd"/>
	<path id="neocafe" d="M6.06775e-05 26.08L6.06775e-05 13.6C6.06775e-05 11.424 0.778727 9.55729 2.33606 7.99996C3.89339 6.44263 5.76006 5.66396 7.93606 5.66396C10.1334 5.66396 12.0001 6.44263 13.5361 7.99996C15.0934 9.53596 15.8721 11.4026 15.8721 13.6L15.8721 26.08L12.4801 26.08L12.4801 13.6C12.4801 12.3626 12.0321 11.296 11.1361 10.4C10.2401 9.50396 9.17339 9.05596 7.93606 9.05596C6.69873 9.05596 5.63206 9.50396 4.73606 10.4C3.84006 11.296 3.39206 12.3626 3.39206 13.6L3.39206 26.08L6.06775e-05 26.08ZM20.8116 8.67196C22.8169 6.66662 25.2276 5.66396 28.0436 5.66396C30.8596 5.66396 33.2596 6.66662 35.2436 8.67196C37.2489 10.656 38.2516 13.056 38.2516 15.872C38.2516 16.4053 38.1982 16.9706 38.0916 17.568L21.4516 17.568C21.8356 19.0613 22.6356 20.288 23.8516 21.248C25.0676 22.1866 26.4649 22.656 28.0436 22.656C30.0276 22.656 31.6809 21.9413 33.0036 20.512L37.1316 20.512C36.2782 22.1973 35.0302 23.552 33.3876 24.576C31.7662 25.5786 29.9849 26.08 28.0436 26.08C25.2276 26.08 22.8169 25.088 20.8116 23.104C18.8276 21.0986 17.8356 18.688 17.8356 15.872C17.8356 13.056 18.8276 10.656 20.8116 8.67196ZM21.4516 14.176L34.6356 14.176C34.2729 12.6826 33.4729 11.456 32.2356 10.496C31.0196 9.53596 29.6222 9.05596 28.0436 9.05596C26.4649 9.05596 25.0569 9.53596 23.8196 10.496C22.6036 11.456 21.8142 12.6826 21.4516 14.176ZM42.0831 8.67196C44.0884 6.66662 46.4991 5.66396 49.3151 5.66396C52.1311 5.66396 54.5311 6.66662 56.5151 8.67196C58.5204 10.656 59.5231 13.056 59.5231 15.872C59.5231 18.688 58.5204 21.0986 56.5151 23.104C54.5311 25.088 52.1311 26.08 49.3151 26.08C46.4991 26.08 44.0884 25.088 42.0831 23.104C40.0991 21.0986 39.1071 18.688 39.1071 15.872C39.1071 13.056 40.0991 10.656 42.0831 8.67196ZM54.1151 11.072C52.7924 9.72796 51.1924 9.05596 49.3151 9.05596C47.4377 9.05596 45.8271 9.72796 44.4831 11.072C43.1604 12.3946 42.4991 13.9946 42.4991 15.872C42.4991 17.7493 43.1604 19.3493 44.4831 20.672C45.8271 21.9946 47.4377 22.656 49.3151 22.656C51.1924 22.656 52.7924 21.9946 54.1151 20.672C55.4591 19.3493 56.1311 17.7493 56.1311 15.872C56.1311 13.9946 55.4591 12.3946 54.1151 11.072Z" fill="#2A3440" fill-opacity="1.000000" fill-rule="evenodd"/>
</svg>
