<svg width="52.000000" height="52.000000" viewBox="0 0 52 52" fill="none" xmlns="http://www.w3.org/2000/svg" xmlns:xlink="http://www.w3.org/1999/xlink">
	<desc>
			Created with Pixso.
	</desc>
	<defs>
		<clipPath id="clip19_2309">
			<rect id="mdi:bell" width="28.000000" height="28.000000" transform="translate(12.000000 12.000000)" fill="white" fill-opacity="0"/>
		</clipPath>
		<clipPath id="clip19_2308">
			<rect id="Frame 283" rx="26.000000" width="52.000000" height="52.000000" fill="white" fill-opacity="0"/>
		</clipPath>
	</defs>
	<rect id="Frame 283" rx="26.000000" width="52.000000" height="52.000000" fill="#F47356" fill-opacity="1.000000"/>
	<g clip-path="url(#clip19_2308)">
		<rect id="mdi:bell" width="28.000000" height="28.000000" transform="translate(12.000000 12.000000)" fill="#FFFFFF" fill-opacity="0"/>
		<g clip-path="url(#clip19_2309)">
			<path id="Vector" d="M36.5 34.1665L36.5 35.3333L15.5 35.3333L15.5 34.1665L17.8333 31.8333L17.8333 24.8333C17.8333 21.2166 20.2017 18.0315 23.6667 17.0049L23.6667 16.6665C23.6667 16.0479 23.9125 15.4543 24.3501 15.0166C24.7877 14.5791 25.3812 14.3333 26 14.3333C26.6188 14.3333 27.2123 14.5791 27.6499 15.0166C28.0875 15.4543 28.3333 16.0479 28.3333 16.6665L28.3333 17.0049C31.7983 18.0315 34.1667 21.2166 34.1667 24.8333L34.1667 31.8333L36.5 34.1665ZM28.3333 36.5C28.3333 37.1187 28.0875 37.7122 27.6499 38.1499C27.2123 38.5874 26.6188 38.8333 26 38.8333C25.3812 38.8333 24.7877 38.5874 24.3501 38.1499C23.9125 37.7122 23.6667 37.1187 23.6667 36.5L28.3333 36.5Z" fill="#FFFFFF" fill-opacity="1.000000" fill-rule="nonzero"/>
		</g>
	</g>
</svg>
