<svg width="48.000000" height="48.000000" viewBox="0 0 48 48" fill="none" xmlns="http://www.w3.org/2000/svg" xmlns:xlink="http://www.w3.org/1999/xlink">
	<desc>
			Created with Pixso.
	</desc>
	<defs>
		<clipPath id="clip67_13495">
			<rect id="mdi:bell" width="28.000000" height="28.000000" transform="translate(10.000000 10.000000)" fill="white" fill-opacity="0"/>
		</clipPath>
		<clipPath id="clip67_13494">
			<rect id="Frame 283" rx="24.000000" width="48.000000" height="48.000000" fill="white" fill-opacity="0"/>
		</clipPath>
	</defs>
	<rect id="Frame 283" rx="24.000000" width="48.000000" height="48.000000" fill="#5B7E9A" fill-opacity="1.000000"/>
	<g clip-path="url(#clip67_13494)">
		<rect id="mdi:bell" width="28.000000" height="28.000000" transform="translate(10.000000 10.000000)" fill="#FFFFFF" fill-opacity="0"/>
		<g clip-path="url(#clip67_13495)">
			<path id="Vector" d="M34.5 32.167L34.5 33.3335L13.5 33.3335L13.5 32.167L15.8334 29.8335L15.8334 22.8335C15.8334 19.2168 18.2017 16.0317 21.6666 15.0054L21.6666 14.667C21.6666 14.0479 21.9125 13.4546 22.3501 13.0171C22.7877 12.5791 23.3811 12.3335 24 12.3335C24.6189 12.3335 25.2123 12.5791 25.6499 13.0171C26.0875 13.4546 26.3334 14.0479 26.3334 14.667L26.3334 15.0054C29.7983 16.0317 32.1666 19.2168 32.1666 22.8335L32.1666 29.8335L34.5 32.167ZM26.3334 34.5C26.3334 35.1191 26.0875 35.7124 25.6499 36.1499C25.2123 36.5879 24.6189 36.8335 24 36.8335C23.3811 36.8335 22.7877 36.5879 22.3501 36.1499C21.9125 35.7124 21.6666 35.1191 21.6666 34.5L26.3334 34.5Z" fill="#FFFFFF" fill-opacity="1.000000" fill-rule="nonzero"/>
		</g>
	</g>
</svg>
