<svg width="24.000000" height="24.000000" viewBox="0 0 24 24" fill="none" xmlns="http://www.w3.org/2000/svg" xmlns:xlink="http://www.w3.org/1999/xlink">
	<desc>
			Created with Pixso.
	</desc>
	<defs>
		<clipPath id="clip29_7451">
			<rect id="mdi:exit-to-app" width="24.000000" height="24.000000" fill="white" fill-opacity="0"/>
		</clipPath>
	</defs>
	<rect id="mdi:exit-to-app" width="24.000000" height="24.000000" fill="#FFFFFF" fill-opacity="0"/>
	<g clip-path="url(#clip29_7451)">
		<path id="Vector" d="M19 3L5 3C3.88989 3 3 3.88965 3 5L3 9L5 9L5 5L19 5L19 19L5 19L5 15L3 15L3 19C3 19.5303 3.21069 20.0391 3.58569 20.4141C3.96094 20.7891 4.46948 21 5 21L19 21C19.5305 21 20.0391 20.7891 20.4143 20.4141C20.7893 20.0391 21 19.5303 21 19L21 5C21 4.46973 20.7893 3.96094 20.4143 3.58594C20.0391 3.21094 19.5305 3 19 3ZM10.0801 15.5801L11.5 17L16.5 12L11.5 7L10.0801 8.41016L12.6699 11L3 11L3 13L12.6699 13L10.0801 15.5801Z" fill="#FFFFFF" fill-opacity="1.000000" fill-rule="nonzero"/>
	</g>
</svg>
