<svg width="24.000000" height="24.000000" viewBox="0 0 24 24" fill="none" xmlns="http://www.w3.org/2000/svg" xmlns:xlink="http://www.w3.org/1999/xlink">
	<desc>
			Created with Pixso.
	</desc>
	<defs>
		<clipPath id="clip29_7439">
			<rect id="mdi:archive" width="24.000000" height="24.000000" fill="white" fill-opacity="0"/>
		</clipPath>
	</defs>
	<rect id="mdi:archive" width="24.000000" height="24.000000" fill="#FFFFFF" fill-opacity="0"/>
	<g clip-path="url(#clip29_7439)">
		<path id="Vector" d="M3 3L21 3L21 7L3 7L3 3ZM4 8L20 8L20 21L4 21L4 8ZM9.5 11C9.36743 11 9.24023 11.0527 9.14648 11.1465C9.05273 11.2402 9 11.3672 9 11.5L9 13L15 13L15 11.5C15 11.3672 14.9473 11.2402 14.8535 11.1465C14.7598 11.0527 14.6326 11 14.5 11L9.5 11Z" fill="#FFFFFF" fill-opacity="1.000000" fill-rule="nonzero"/>
	</g>
</svg>
